<svg width="326" height="51" viewBox="0 0 326 51" fill="none" xmlns="http://www.w3.org/2000/svg">
<g clip-path="url(#clip0)">
<path d="M2.14037 0C2.14037 0 0 0 0 2.14037V47.8999C0 47.8999 0 50.0403 2.14037 50.0403H47.8999C47.8999 50.0403 50.0403 50.0403 50.0403 47.8999V2.14037C50.0403 2.14037 50.0403 0 47.8999 0H2.14037V0Z" fill="#C6232D"/>
<path d="M18.9681 42.4383H12.0303C10.8494 42.4383 10.3328 41.9217 10.3328 40.7408V28.2676C10.3328 26.3487 10.9233 23.9869 12.178 20.7394L16.3111 10.0376C16.6801 8.93051 17.4182 8.48767 18.7467 8.48767H31.4413C32.696 8.48767 33.434 8.93051 33.803 10.0376L37.8624 20.6656C39.1171 23.9869 39.7075 26.3487 39.7075 28.1938V40.667C39.7075 41.8479 39.1909 42.3645 38.01 42.3645H30.8508C29.5961 42.3645 29.0057 41.8479 29.0057 40.667V34.0245H20.6656V40.667C20.6656 41.9217 20.149 42.4383 18.9681 42.4383ZM21.1084 25.5368H28.489L26.2749 18.3776C26.0534 17.7872 25.7582 17.5658 25.3892 17.5658H24.2083C23.8393 17.5658 23.544 17.7872 23.3226 18.3776L21.1084 25.5368Z" fill="white"/>
<path d="M57.3471 0C57.3471 0 55.2067 0 55.2067 2.14037V47.8999C55.2067 47.8999 55.2067 50.0403 57.3471 50.0403H103.107C103.107 50.0403 105.247 50.0403 105.247 47.8999V2.14037C105.247 2.14037 105.247 0 103.107 0H57.3471V0Z" fill="#C6232D"/>
<path d="M68.7869 42.4382C67.606 42.4382 67.0894 41.9216 67.0894 40.7407V10.1113C67.0894 8.9304 67.606 8.41376 68.7869 8.41376H76.0937C77.2745 8.41376 77.7912 8.9304 77.7912 10.1113V33.5077H84.2861V25.8319C84.2861 24.651 84.8027 24.1344 85.9836 24.1344H92.8476C94.0285 24.1344 94.5451 24.651 94.5451 25.8319V40.7407C94.5451 41.9216 94.0285 42.4382 92.8476 42.4382H68.7869Z" fill="white"/>
<path d="M112.554 0C112.554 0 110.413 0 110.413 2.14037V47.8999C110.413 47.8999 110.413 50.0403 112.554 50.0403H158.313C158.313 50.0403 160.454 50.0403 160.454 47.8999V2.14037C160.454 2.14037 160.454 0 158.313 0H112.554V0Z" fill="#C6232D"/>
<path d="M123.994 42.4382C122.813 42.4382 122.296 41.9216 122.296 40.7407V10.1113C122.296 8.9304 122.813 8.41376 123.994 8.41376H131.3C132.481 8.41376 132.998 8.9304 132.998 10.1113V33.5077H139.493V25.8319C139.493 24.651 140.009 24.1344 141.19 24.1344H148.054C149.235 24.1344 149.752 24.651 149.752 25.8319V40.7407C149.752 41.9216 149.235 42.4382 148.054 42.4382H123.994Z" fill="white"/>
<path d="M167.76 0C167.76 0 165.62 0 165.62 2.14037V47.8999C165.62 47.8999 165.62 50.0403 167.76 50.0403H213.52C213.52 50.0403 215.66 50.0403 215.66 47.8999V2.14037C215.66 2.14037 215.66 0 213.52 0H167.76V0Z" fill="#C6232D"/>
<path d="M177.946 42.4382C176.765 42.4382 176.248 41.9216 176.248 40.7407V10.1113C176.248 8.9304 176.765 8.41376 177.946 8.41376H193.888C201.859 8.41376 205.475 11.5136 205.475 18.0823V32.8435C205.475 39.4122 201.785 42.512 193.888 42.512H177.946V42.4382ZM186.95 33.5077H192.559C194.035 33.5077 194.773 32.7697 194.773 31.2197V19.706C194.773 18.1561 194.035 17.4181 192.559 17.4181H186.95V33.5077V33.5077Z" fill="white"/>
<path d="M222.893 0C222.893 0 220.753 0 220.753 2.14037V47.8999C220.753 47.8999 220.753 50.0403 222.893 50.0403H268.653C268.653 50.0403 270.793 50.0403 270.793 47.8999V2.14037C270.793 2.14037 270.793 0 268.653 0H222.893V0Z" fill="#C6232D"/>
<path d="M239.795 42.4383H232.857C231.676 42.4383 231.16 41.9217 231.16 40.7408V28.2676C231.16 26.3487 231.75 23.9869 233.005 20.7394L237.138 10.0376C237.507 8.93051 238.245 8.48767 239.573 8.48767H252.268C253.523 8.48767 254.261 8.93051 254.63 10.0376L258.763 20.7394C260.018 24.0607 260.608 26.4225 260.608 28.2676V40.7408C260.608 41.9217 260.091 42.4383 258.911 42.4383H251.678C250.423 42.4383 249.832 41.9217 249.832 40.7408V34.0983H241.492V40.7408C241.492 41.9217 240.976 42.4383 239.795 42.4383ZM241.935 25.5368H249.316L247.102 18.3776C246.88 17.7872 246.585 17.5658 246.216 17.5658H245.035C244.666 17.5658 244.371 17.7872 244.149 18.3776L241.935 25.5368Z" fill="white"/>
<path d="M278.1 0C278.1 0 275.96 0 275.96 2.14037V47.8999C275.96 47.8999 275.96 50.0403 278.1 50.0403H323.86C323.86 50.0403 326 50.0403 326 47.8999V2.14037C326 2.14037 326 0 323.86 0H278.1V0Z" fill="#C6232D"/>
<path d="M297.216 42.4382C295.961 42.4382 295.518 41.9216 295.518 40.7407V34.6886L288.285 25.0201C286.809 23.1011 286.514 22.1416 286.514 19.1894V10.1113C286.514 8.9304 287.031 8.41376 288.211 8.41376H295.518C296.699 8.41376 297.216 8.9304 297.216 10.1113V17.8609C297.216 18.5251 297.216 19.1894 297.659 19.8536L299.799 23.2487C300.094 23.8392 300.389 24.0606 300.906 24.0606H301.349C301.865 24.0606 302.161 23.8392 302.456 23.2487L304.596 19.8536C305.039 19.1894 305.039 18.5251 305.039 17.8609V10.1113C305.039 8.9304 305.556 8.41376 306.737 8.41376H313.748C314.929 8.41376 315.446 8.9304 315.446 10.1113V19.1894C315.446 22.1416 315.077 23.0273 313.674 25.0201L306.589 34.6886V40.6669C306.589 41.8478 306.072 42.3644 304.892 42.3644H297.216V42.4382Z" fill="white"/>
</g>
<defs>
<clipPath id="clip0">
<rect width="326" height="50.0403" fill="white"/>
</clipPath>
</defs>
</svg>